<svg xmlns="http://www.w3.org/2000/svg" width="24" height="24" viewBox="0 0 6.35 6.35">
    <path d="M3.17 290.65c-1.32.03-1.92 1.49-.94 2.62.15.17.16.26-.1.1a1.32 1.32 0 0 0-2 1.18c-.08 1.63 2.25 2.1 2.7.36.01-.18.17-.17.13.09a5.3 5.3 0 0 1-.57 2h1.57a5.3 5.3 0 0 1-.57-2c-.04-.26.12-.27.14-.09.44 1.74 2.77 1.27 2.69-.36a1.32 1.32 0 0 0-2-1.18c-.26.16-.25.07-.1-.1.98-1.13.38-2.6-.94-2.62z"
          style="display:inline;opacity:1;fill:#fff;stroke-width:.13426775" transform="translate(0 -290.65)"/>
</svg>