<svg xmlns="http://www.w3.org/2000/svg" width="24" height="24">
    <path d="M21.82 3.27A12.88 12.88 0 0 0 18 2.73c-2.13 0-4.42.43-6 1.63-1.58-1.2-3.87-1.63-6-1.63s-4.42.43-6 1.63v15.99c0 .27.27.54.55.54.1 0 .16-.05.27-.05 1.47-.71 3.6-1.2 5.18-1.2 2.13 0 4.42.43 6 1.63a13.14 13.14 0 0 1 6-1.63c1.8 0 3.65.32 5.18 1.14.11.06.17.06.27.06.28 0 .55-.28.55-.55V4.36a7.44 7.44 0 0 0-2.18-1.09m0 14.73c-1.2-.38-2.51-.55-3.82-.55-1.85 0-4.53.71-6 1.64V6.55a13.14 13.14 0 0 1 6-1.64c1.3 0 2.62.16 3.82.54z"
          style="fill:#fff;stroke-width:1.09090912"/>
</svg>