<svg xmlns="http://www.w3.org/2000/svg" width="24" height="24">
    <path d="M12 .3a12 12 0 0 0-12 12c0 5.3 3.44 9.8 8.2 11.4.6.09.8-.29.8-.6v-2.04c-3.32.72-4.03-1.6-4.03-1.6-.55-1.4-1.33-1.77-1.33-1.77-1.1-.74.08-.72.08-.72 1.2.08 1.84 1.24 1.84 1.24 1.04 1.82 2.8 1.28 3.49 1 .1-.79.42-1.32.75-1.62-2.66-.3-5.46-1.33-5.46-5.9 0-1.33.46-2.4 1.24-3.25a4.3 4.3 0 0 1 .12-3.17s1-.32 3.3 1.22a11.3 11.3 0 0 1 6 0c2.3-1.54 3.3-1.22 3.3-1.22a4.3 4.3 0 0 1 .12 3.17 4.65 4.65 0 0 1 1.24 3.25c0 4.58-2.81 5.6-5.49 5.9.43.36.83 1.1.83 2.21v3.3c0 .31.2.7.8.6 4.77-1.62 8.2-6.1 8.2-11.4a12 12 0 0 0-12-12Z"
          style="stroke-width:1.20000005;fill:#fff"/>
</svg>