<svg xmlns="http://www.w3.org/2000/svg" width="24" height="24">
    <path d="M5.84 2.92H24v2.6H5.84v-2.6m0 10.38v-2.6H24v2.6H5.84M1.94 2.27A1.95 1.95 0 0 1 3.9 4.22a1.95 1.95 0 0 1-1.94 1.94A1.95 1.95 0 0 1 0 4.22a1.95 1.95 0 0 1 1.95-1.95m0 7.78A1.95 1.95 0 0 1 3.89 12a1.95 1.95 0 0 1-1.94 1.95A1.95 1.95 0 0 1 0 12a1.95 1.95 0 0 1 1.95-1.95m3.89 11.03v-2.6H24v2.6H5.84m-3.9-3.24a1.95 1.95 0 0 1 1.95 1.94 1.95 1.95 0 0 1-1.94 1.95A1.95 1.95 0 0 1 0 19.78a1.95 1.95 0 0 1 1.95-1.94Z"
          style="fill:#fff;stroke-width:1.29729724"/>
</svg>