<svg xmlns="http://www.w3.org/2000/svg" width="24" height="24">
    <path d="m20.92 13.16 2.53 2c.23.18.29.5.14.76l-2.4 4.16a.6.6 0 0 1-.73.26l-2.99-1.21c-.62.48-1.27.87-2.02 1.19L15 23.5a.6.6 0 0 1-.6.5H9.6a.6.6 0 0 1-.6-.5l-.44-3.18c-.76-.3-1.4-.71-2.03-1.2l-2.99 1.22a.6.6 0 0 1-.73-.26l-2.4-4.16a.6.6 0 0 1 .14-.76l2.54-2L3 12l.09-1.2L.55 8.84a.6.6 0 0 1-.14-.76l2.4-4.16c.14-.26.47-.37.73-.26l3 1.2a8.7 8.7 0 0 1 2.02-1.18L9 .5a.6.6 0 0 1 .6-.5h4.8c.3 0 .55.22.6.5l.45 3.18c.75.3 1.4.71 2.02 1.18l3-1.2c.26-.1.58 0 .72.26l2.4 4.16a.6.6 0 0 1-.14.76l-2.53 1.96L21 12l-.08 1.16M5.4 12c0 .7.11 1.36.3 2l-2.48 2.03.9 1.56 3.02-1.13a6.58 6.58 0 0 0 3.42 1.98l.53 3.16h1.8l.53-3.16a6.6 6.6 0 0 0 3.44-1.96l3.01 1.12.9-1.56L18.3 14a6.54 6.54 0 0 0 .01-3.98l2.47-2.03-.9-1.56-3 1.12c-.9-.99-2.1-1.7-3.44-2L12.9 2.4h-1.8l-.53 3.16c-1.34.3-2.54 1-3.44 1.99l-3-1.13-.9 1.56 2.47 2.04c-.19.62-.3 1.3-.3 1.98M12 7.8a4.2 4.2 0 0 1 4.2 4.2 4.2 4.2 0 0 1-4.2 4.2A4.2 4.2 0 0 1 7.8 12 4.2 4.2 0 0 1 12 7.8m0 2.4a1.8 1.8 0 0 0-1.8 1.8 1.8 1.8 0 0 0 1.8 1.8 1.8 1.8 0 0 0 1.8-1.8 1.8 1.8 0 0 0-1.8-1.8z"
          style="fill:#fff;stroke-width:1.20000005"/>
</svg>