<svg xmlns="http://www.w3.org/2000/svg" width="3360" height="336" viewBox="0 0 889 88.9">
    <g transform="translate(0 -208.1)">
        <path d="M23.81 232.7v7.94h7.94v31.75h7.94v-39.68z"
              style="stroke-width:3.96876788;fill:#1f7f1f;fill-opacity:1"/>
        <path d="M59.27 292.77v-1.99h-1.99v-7.94H55.3v9.93zM4.23 212.33v1.99h1.99v7.94H8.2v-9.93z"
              style="stroke-width:.99219197"/>
        <path d="M83.34 232.7v7.94h15.88v7.94h-7.94a7.94 7.94 0 0 0-7.94 7.94v15.87h23.82v-7.93H91.28v-7.94h7.94a7.94 7.94 0 0 0 7.94-7.94v-7.94a7.94 7.94 0 0 0-7.94-7.93z"
              style="stroke-width:3.96876788;fill:#1f7f1f;fill-opacity:1"/>
        <path d="M122.77 292.77v-1.99h-3.97v-1.98h1.98a1.98 1.98 0 0 0 1.99-1.99v-3.97h-5.96v1.99h3.97v1.98h-1.98a1.98 1.98 0 0 0-1.99 1.99v1.98a1.98 1.98 0 0 0 1.99 1.99zM67.73 212.33v1.99h3.97v1.98h-1.98a1.98 1.98 0 0 0-1.99 1.99v3.97h5.96v-1.99h-3.97v-1.98h1.98a1.98 1.98 0 0 0 1.99-1.99v-1.98a1.98 1.98 0 0 0-1.99-1.99z"
              style="stroke-width:.99219197"/>
        <path d="M170.66 264.46v-5.96a5.95 5.95 0 0 0-5.96-5.95 5.95 5.95 0 0 0 5.96-5.95v-5.96c0-4.4-3.58-7.93-7.94-7.93h-15.88v7.93h15.88v7.94h-7.94v7.94h7.94v7.94h-15.88v7.93h15.88a7.94 7.94 0 0 0 7.94-7.93"
              style="stroke-width:3.96876788;fill:#1f7f1f;fill-opacity:1"/>
        <path d="M180.31 284.83v1.49a1.49 1.49 0 0 0 1.5 1.49 1.49 1.49 0 0 0-1.5 1.48v1.5c0 1.1.9 1.98 1.99 1.98h3.97v-1.99h-3.97v-1.98h1.98v-1.99h-1.98v-1.98h3.97v-1.99h-3.97a1.98 1.98 0 0 0-1.99 1.99M137.19 220.27v-1.49a1.49 1.49 0 0 0-1.5-1.49 1.49 1.49 0 0 0 1.5-1.48v-1.5c0-1.1-.9-1.98-1.99-1.98h-3.97v1.99h3.97v1.98h-1.98v1.99h1.98v1.98h-3.97v1.99h3.97a1.98 1.98 0 0 0 1.99-1.99"
              style="stroke-width:.99219197"/>
        <path d="M210.34 232.7v23.82h15.88v15.87h7.94v-39.68h-7.94v15.87h-7.94v-15.87z"
              style="stroke-width:3.96876788;fill:#1f7f1f;fill-opacity:1"/>
        <path d="M249.77 292.77v-5.96h-3.97v-3.97h-1.99v9.93h1.99v-3.97h1.98v3.97zM194.73 212.33v5.96h3.97v3.97h1.99v-9.93h-1.99v3.97h-1.98v-3.97z"
              style="stroke-width:.99219197"/>
        <path d="M273.84 232.7v23.82h15.88v7.94h-15.88v7.93h15.88a7.94 7.94 0 0 0 7.94-7.93v-7.94a7.94 7.94 0 0 0-7.94-7.94h-7.94v-7.94h15.88v-7.93z"
              style="stroke-width:3.96876788;fill:#bf1f1f;fill-opacity:1"/>
        <path d="M313.27 292.77v-5.96h-3.97v-1.98h3.97v-1.99h-3.97a1.98 1.98 0 0 0-1.99 1.99v1.98a1.98 1.98 0 0 0 1.99 1.99h1.98v1.98h-3.97v1.99zM258.23 212.33v5.96h3.97v1.98h-3.97v1.99h3.97a1.98 1.98 0 0 0 1.99-1.99v-1.98a1.98 1.98 0 0 0-1.99-1.99h-1.98v-1.98h3.97v-1.99z"
              style="stroke-width:.99219197"/>
        <path d="M345.28 232.7a7.94 7.94 0 0 0-7.94 7.94v23.82a7.94 7.94 0 0 0 7.94 7.93h7.94a7.94 7.94 0 0 0 7.94-7.93v-7.94a7.94 7.94 0 0 0-7.94-7.94h-7.94v-7.94h15.88v-7.93h-15.88m0 23.8h7.94v7.95h-7.94z"
              style="stroke-width:3.96876788;fill:#bf1f1f;fill-opacity:1"/>
        <path d="M374.78 292.77a1.98 1.98 0 0 0 1.99-1.99v-5.95a1.98 1.98 0 0 0-1.99-1.99h-1.98a1.98 1.98 0 0 0-1.99 1.99v1.98a1.98 1.98 0 0 0 1.99 1.99h1.98v1.98h-3.97v1.99h3.97m0-5.96h-1.98v-1.98h1.98zM323.72 212.33a1.98 1.98 0 0 0-1.99 1.99v5.95a1.98 1.98 0 0 0 1.99 1.99h1.98a1.98 1.98 0 0 0 1.99-1.99v-1.98a1.98 1.98 0 0 0-1.99-1.99h-1.98v-1.98h3.97v-1.99h-3.97m0 5.96h1.98v1.98h-1.98z"
              style="stroke-width:.99219197"/>
        <path d="m408.78 272.4 15.88-31.76v-7.93h-23.82v7.93h15.88l-15.88 31.75"
              style="stroke-width:3.96876788;fill:#bf1f1f;fill-opacity:1"/>
        <path d="m438.28 282.84-3.97 7.94v1.99h5.96v-1.99h-3.97l3.97-7.94M387.22 222.26l3.97-7.94v-1.99h-5.96v1.99h3.97l-3.97 7.94"
              style="stroke-width:.99219197"/>
        <path d="M472.28 256.52h7.94v7.94h-7.94m0-23.82h7.94v7.94h-7.94m0 23.81h7.94a7.94 7.94 0 0 0 7.94-7.93v-5.96a5.95 5.95 0 0 0-5.96-5.95 5.95 5.95 0 0 0 5.96-5.95v-5.96c0-4.4-3.58-7.93-7.94-7.93h-7.94a7.94 7.94 0 0 0-7.94 7.93v5.96a5.95 5.95 0 0 0 5.96 5.95 5.95 5.95 0 0 0-5.96 5.95v5.96c0 4.4 3.58 7.93 7.94 7.93"
              style="stroke-width:3.96876788;fill:#bf1f1f;fill-opacity:1"/>
        <path d="M501.78 286.81h-1.98v-1.98h1.98m0 5.95h-1.98v-1.98h1.98m0-5.96h-1.98a1.98 1.98 0 0 0-1.99 1.99v1.49a1.49 1.49 0 0 0 1.5 1.49 1.49 1.49 0 0 0-1.5 1.48v1.5c0 1.1.9 1.98 1.99 1.98h1.98a1.98 1.98 0 0 0 1.99-1.99v-1.49a1.49 1.49 0 0 0-1.5-1.48 1.49 1.49 0 0 0 1.5-1.5v-1.48c0-1.1-.9-1.99-1.99-1.99M450.72 218.29h1.98v1.98h-1.98m0-5.95h1.98v1.98h-1.98m0 5.96h1.98a1.98 1.98 0 0 0 1.99-1.99v-1.49a1.49 1.49 0 0 0-1.5-1.49 1.49 1.49 0 0 0 1.5-1.48v-1.5c0-1.1-.9-1.98-1.99-1.98h-1.98a1.98 1.98 0 0 0-1.99 1.99v1.49a1.49 1.49 0 0 0 1.5 1.48 1.49 1.49 0 0 0-1.5 1.5v1.48c0 1.1.9 1.99 1.99 1.99"
              style="stroke-width:.99219197"/>
        <path d="M543.72 272.4a7.94 7.94 0 0 0 7.94-7.94v-23.82a7.94 7.94 0 0 0-7.94-7.93h-7.94a7.94 7.94 0 0 0-7.94 7.93v7.94a7.94 7.94 0 0 0 7.94 7.94h7.94v7.94h-15.88v7.93h15.88m0-23.8h-7.94v-7.95h7.94z"
              style="stroke-width:3.96876788;fill:#1f1f7f;fill-opacity:1"/>
        <path d="M563.3 282.84a1.98 1.98 0 0 0-1.99 1.99v5.95a1.98 1.98 0 0 0 1.99 1.99h1.98a1.98 1.98 0 0 0 1.99-1.99v-1.98a1.98 1.98 0 0 0-1.99-1.99h-1.98v-1.98h3.97v-1.99h-3.97m0 5.96h1.98v1.98h-1.98zM516.2 222.26a1.98 1.98 0 0 0 1.99-1.99v-5.95a1.98 1.98 0 0 0-1.99-1.99h-1.98a1.98 1.98 0 0 0-1.99 1.99v1.98a1.98 1.98 0 0 0 1.99 1.99h1.98v1.98h-3.97v1.99h3.97m0-5.96h-1.98v-1.98h1.98z"
              style="stroke-width:.99219197"/>
        <g style="fill:#1f1f7f;fill-opacity:1">
            <path d="M605.9 232.7a7.94 7.94 0 0 0-7.94 7.94v23.82a7.94 7.94 0 0 0 7.94 7.93h7.93a7.94 7.94 0 0 0 7.94-7.93v-23.82a7.94 7.94 0 0 0-7.94-7.93h-7.93m0 7.93h7.93v23.82h-7.93z"
                  style="stroke-width:3.96876931;fill:#1f1f7f;fill-opacity:1" transform="scale(.99999)"/>
            <path d="M584.73 232.7v39.7h7.94v-39.7z" style="stroke-width:3.96876788;fill:#1f1f7f;fill-opacity:1"
                  transform="scale(.99999)"/>
        </g>
        <path d="M605.9 232.7a7.94 7.94 0 0 0-7.94 7.94v23.82a7.94 7.94 0 0 0 7.94 7.93h7.93a7.94 7.94 0 0 0 7.94-7.93v-23.82a7.94 7.94 0 0 0-7.94-7.93h-7.93m0 7.93h7.93v23.82h-7.93z"
              style="stroke-width:3.96876931" transform="matrix(-.25 0 0 -.25 776.95 350.94)"/>
        <path d="M584.73 232.7v39.7h7.94v-39.7z" style="stroke-width:3.96876788"
              transform="matrix(-.25 0 0 -.25 776.95 350.94)"/>
        <path d="M605.9 232.7a7.94 7.94 0 0 0-7.94 7.94v23.82a7.94 7.94 0 0 0 7.94 7.93h7.93a7.94 7.94 0 0 0 7.94-7.93v-23.82a7.94 7.94 0 0 0-7.94-7.93h-7.93m0 7.93h7.93v23.82h-7.93z"
              style="stroke-width:3.96876931" transform="matrix(.25 0 0 .25 429.55 154.16)"/>
        <path d="M584.73 232.7v39.7h7.94v-39.7z" style="stroke-width:3.96876788"
              transform="matrix(.25 0 0 .25 429.55 154.16)"/>
        <path d="M2475 93v150h30V93h-30zm60 0v150h30V93h-30z"
              style="stroke-width:14.99991608;fill:#1f1f7f;fill-opacity:1"
              transform="matrix(.26458 0 0 .26458 0 208.1)"/>
        <path d="M694.27 292.77v-9.93h-1.99v9.93zm-3.97 0v-9.93h-1.99v9.93zM639.23 212.33v9.93h1.99v-9.93zm3.97 0v9.93h1.99v-9.93z"
              style="stroke-width:.99218196"/>
        <path d="M2690 93v150h30V93h-30zm50 0v30h60v30h-30a30 30 0 0 0-30 30v60h90v-30h-60v-30h30a30 30 0 0 0 30-30v-30a30 30 0 0 0-30-30h-60z"
              style="stroke-width:14.99991989;fill:#1f1f7f;fill-opacity:1"
              transform="matrix(.26458 0 0 .26458 0 208.1)"/>
        <path d="M757.77 292.77v-9.93h-1.99v9.93zm-3.31 0v-1.99h-3.97v-1.98h1.99a1.98 1.98 0 0 0 1.98-1.99v-3.97h-5.95v1.99h3.97v1.98h-1.99a1.98 1.98 0 0 0-1.98 1.99v1.98a1.98 1.98 0 0 0 1.98 1.99zM702.73 212.33v9.93h1.99v-9.93zm3.31 0v1.99h3.97v1.98h-1.99a1.98 1.98 0 0 0-1.98 1.99v3.97h5.95v-1.99h-3.97v-1.98h1.99a1.98 1.98 0 0 0 1.98-1.99v-1.98a1.98 1.98 0 0 0-1.98-1.99z"
              style="stroke-width:.9921822"/>
        <path d="M3000 40a128 128 0 0 0-120 83.92v88.36A128 128 0 0 0 3000 296a128 128 0 0 0 120-83.92v-88.36A128 128 0 0 0 3000 40zm-75 53h30v120h30V108h30v105h30V93h30v120a30 30 0 0 1-30 30h-90a30 30 0 0 1-30-30V93z"
              style="fill:#000;fill-opacity:1;stroke-width:.99774438" transform="matrix(.26458 0 0 .26458 0 208.1)"/>
        <path d="M768.22 222.26c-1.1 0-1.99-.9-1.99-1.99v-7.94h1.99v7.94h1.98v-6.94h1.99v6.94h1.98v-7.94h1.99v7.94c0 1.1-.9 1.99-1.99 1.99h-2.84zM819.28 282.84c1.1 0 1.99.9 1.99 1.99v7.94h-1.99v-7.94h-1.98v6.94h-1.99v-6.94h-1.98v7.94h-1.99v-7.94c0-1.1.9-1.99 1.99-1.99h2.84z"
              style="fill:#000;stroke-width:.99218869"/>
        <ellipse cx="797.2" cy="302.08" rx=".13" ry=".07" style="fill:#fff;fill-opacity:1;stroke-width:.26458332"/>
        <path d="M3136 8c-4.43 0-8 3.57-8 8v304c0 4.43 3.57 8 8 8h208c4.43 0 8-3.57 8-8V16c0-4.43-3.57-8-8-8h-208zm12 8h184c6.58 0 12 5.42 12 12v280c0 6.58-5.42 12-12 12h-184c-6.58 0-12-5.42-12-12V28c0-6.58 5.42-12 12-12zm0 8a3.9 3.9 0 0 0-4 4v280c0 2.29 1.72 4 4 4h184c2.28 0 4-1.71 4-4V28c0-2.29-1.72-4-4-4h-184z"
              style="fill:#1f3f6b;fill-opacity:1;stroke-width:.94280893" transform="matrix(.26458 0 0 .26458 0 208.1)"/>
        <rect width=".05" height=".07" x="891.91" y="213.39" ry=".02"
              style="fill:none;fill-opacity:1;stroke:#fff;stroke-width:2.11666656;stroke-miterlimit:4;stroke-dasharray:none;stroke-opacity:1"/>
    </g>
</svg>